<svg viewBox="0 0 100 80" xmlns="http://www.w3.org/2000/svg">
  <style>
    .edge {
      font: normal 12px sans-serif;
    }
    .data {
      font: normal 12px sans-serif;
      fill : blue;
    }
  </style>
  <rect width="100%" height="100%" fill="#dddddd" />
  
  <g transform="translate(0,0)">
    <path d="M 50,10 l -10,+20" stroke="black" /> <text x="35" y="25" class="edge">0</text>
    <path d="M 40,30 l -20,+40" stroke="black" /> <text x="08" y="65" class="edge">00</text>
    <path d="M 40,30 c +10,+20 +10,+20 0,+40" stroke="black" fill="none" /> <text x="46" y="65" class="edge">01</text>
    <path d="M 50,10 c +20,+40 +20,+40 +10,+60" stroke="black" fill="none" /> <text x="66" y="65" class="edge">011</text>
    <circle cx="50" cy="10" r="2" fill="black" /> <text x="53" y="15" class="data">9</text>
    <circle cx="40" cy="30" r="2" fill="black" /> <text x="43" y="35" class="data">5</text>
    <circle cx="20" cy="70" r="2" fill="black" /> <text x="23" y="75" class="data">2</text>
    <circle cx="40" cy="70" r="2" fill="black" /> <text x="43" y="75" class="data">3</text>
    <circle cx="60" cy="70" r="2" fill="black" /> <text x="63" y="75" class="data">4</text>
  </g>
</svg>
