<svg viewBox="0 0 260 100" xmlns="http://www.w3.org/2000/svg">
  <style>
    .edge {
      font: normal 12px sans-serif;
    }
  </style>
  <rect width="100%" height="100%" fill="#dddddd" />

  <g transform="translate(10,0)">
    <path d="M 25,5 l +50,0 l +20,+45 l -90,0 Z" stroke="black" stroke-dasharray="1,2" fill="none" />
    <path d="M 10,50 l +20,0 l +10,+45 l -40,0 Z" stroke="black" stroke-dasharray="1,2" fill="none" />
    <path d="M 70,50 l +20,0 l +10,+45 l -40,0 Z" stroke="black" stroke-dasharray="1,2" fill="none" />
    <path d="M 50,10 l -30,+40" stroke="black" /> <text x="08" y="45" class="edge">00</text>
    <path d="M 20,50 l -10,+40" stroke="black" /> <text x="-4" y="85" class="edge">00</text>
    <path d="M 20,50 l +10,+40" stroke="black" /> <text x="29" y="85" class="edge">11</text>
    <path d="M 50,10 c +30,+40 +30,+40 +40,+80" stroke="black" fill="none" /> <text x="89" y="85" class="edge">1111</text>
    <circle cx="50" cy="10" r="2" fill="black" />
    <circle cx="20" cy="50" r="2" fill="black" />
    <circle cx="10" cy="90" r="2" fill="black" />
    <circle cx="30" cy="90" r="2" fill="black" />
    <circle cx="90" cy="90" r="2" fill="black" />
  </g>

  <g transform="translate(150,0)">
    <path d="M 25,5 l +50,0 l +20,+45 l -90,0 Z" stroke="black" stroke-dasharray="1,2" fill="none" />
    <path d="M 10,50 l +20,0 l +10,+45 l -40,0 Z" stroke="black" stroke-dasharray="1,2" fill="none" />
    <path d="M 70,50 l +20,0 l +10,+45 l -40,0 Z" stroke="black" stroke-dasharray="1,2" fill="none" />
    <path d="M 50,10 l -20,+20" stroke="black" /> <text x="25" y="25" class="edge">0</text>
    <path d="M 30,30 l -10,+20" stroke="black" /> <text x="15" y="45" class="edge">0</text>
    <path d="M 20,50 l -10,+40" stroke="black" /> <text x="-4" y="85" class="edge">00</text>
    <path d="M 20,50 l +10,+40" stroke="black" /> <text x="29" y="85" class="edge">11</text>
    <path d="M 30,30 l +10,+20" stroke="black" /> <text x="38" y="45" class="edge">1</text>
    <path d="M 50,10 l +20,+20" stroke="black" /> <text x="68" y="25" class="edge">1</text>
    <path d="M 70,30 l -10,+20" stroke="black" /> <text x="55" y="45" class="edge">0</text>
    <path d="M 70,30 l +10,+20" stroke="black" /> <text x="78" y="45" class="edge">1</text>
    <path d="M 80,50 l +10,+40" stroke="black" /> <text x="89" y="85" class="edge">11</text>
    <circle cx="50" cy="10" r="2" fill="black" />
    <circle cx="30" cy="30" r="2" fill="blue" />
    <circle cx="20" cy="50" r="2" fill="red" />
    <circle cx="10" cy="90" r="2" fill="black" />
    <circle cx="30" cy="90" r="2" fill="black" />
    <circle cx="40" cy="50" r="2" fill="red" />
    <circle cx="70" cy="30" r="2" fill="blue" />
    <circle cx="60" cy="50" r="2" fill="red" />
    <circle cx="80" cy="50" r="2" fill="red" />
    <circle cx="90" cy="90" r="2" fill="black" />
  </g>
</svg>
