<svg viewBox="0 0 200 100" xmlns="http://www.w3.org/2000/svg">
  <style>
    .edge {
      font: normal 12px sans-serif;
    }
  </style>

  <g transform="translate(5,0)">
    <circle cx="50" cy="10" r="2" fill="black" />
    <circle cx="40" cy="30" r="2" fill="black" />
    <circle cx="30" cy="50" r="2" fill="black" />
    <circle cx="20" cy="70" r="2" fill="black" />
    <circle cx="50" cy="50" r="2" fill="black" />
    <circle cx="40" cy="70" r="2" fill="black" />
    <circle cx="60" cy="30" r="2" fill="black" />
    <circle cx="70" cy="50" r="2" fill="black" />
    <circle cx="60" cy="70" r="2" fill="black" />
    <path d="M 50,10 l -10,+20" stroke="black" /> <text x="35" y="25" class="edge">0</text>
    <path d="M 40,30 l -10,+20" stroke="black" /> <text x="25" y="45" class="edge">0</text>
    <path d="M 30,50 l -10,+20" stroke="black" /> <text x="15" y="65" class="edge">0</text>
    <path d="M 40,30 l +10,+20" stroke="black" /> <text x="48" y="45" class="edge">1</text>
    <path d="M 50,50 l -10,+20" stroke="black" /> <text x="35" y="65" class="edge">0</text>
    <path d="M 50,10 l +10,+20" stroke="black" /> <text x="58" y="25" class="edge">1</text>
    <path d="M 60,30 l +10,+20" stroke="black" /> <text x="68" y="45" class="edge">1</text>
    <path d="M 70,50 l -10,+20" stroke="black" /> <text x="55" y="65" class="edge">0</text>
  </g>

  <g transform="translate(105,0)">
    <circle cx="50" cy="10" r="2" fill="black" />
    <circle cx="40" cy="30" r="2" fill="black" />
    <circle cx="20" cy="70" r="2" fill="black" />
    <circle cx="40" cy="70" r="2" fill="black" />
    <circle cx="60" cy="70" r="2" fill="black" />
    <path d="M 50,10 l -10,+20" stroke="black" /> <text x="35" y="25" class="edge">0</text>
    <path d="M 40,30 l -20,+40" stroke="black" /> <text x="08" y="65" class="edge">00</text>
    <path d="M 40,30 c +10,+20 +10,+20 0,+40" stroke="black" fill="none" /> <text x="46" y="65" class="edge">01</text>
    <path d="M 50,10 c +20,+40 +20,+40 +10,+60" stroke="black" fill="none" /> <text x="66" y="65" class="edge">011</text>
  </g>
</svg>
