<svg viewBox="0 0 120 115" xmlns="http://www.w3.org/2000/svg">
  <style>
    .edge {
      font: normal 12px sans-serif;
    }
    .data {
      font: normal 12px sans-serif;
      fill: blue;
    }
  </style>
  <rect width="100%" height="100%" fill="#dddddd" />

  <g transform="translate(10,0)">
    <path d="M 50,10 l -20,+20" stroke="black" /> <text x="25" y="25" class="edge">0</text>
    <path d="M 30,30 l -10,+20" stroke="black" /> <text x="15" y="45" class="edge">0</text>
    <path d="M 20,50 l -10,+40" stroke="black" /> <text x="-4" y="85" class="edge">00</text>
    <path d="M 20,50 l +10,+40" stroke="black" /> <text x="29" y="85" class="edge">11</text>
    <path d="M 30,30 l +10,+20" stroke="black" /> <text x="38" y="45" class="edge">1</text>
    <path d="M 50,10 l +20,+20" stroke="black" /> <text x="68" y="25" class="edge">1</text>
    <path d="M 70,30 l -10,+20" stroke="black" /> <text x="55" y="45" class="edge">0</text>
    <path d="M 70,30 l +10,+20" stroke="black" /> <text x="78" y="45" class="edge">1</text>
    <path d="M 80,50 l -10,+40" stroke="black" /> <text x="56" y="85" class="edge">00</text>
    <path d="M 80,50 l +10,+40" stroke="black" /> <text x="89" y="85" class="edge">11</text>
    <circle cx="50" cy="10" r="2" fill="black" />
    <circle cx="30" cy="30" r="2" fill="blue" />
    <circle cx="20" cy="50" r="2" fill="red" />
    <circle cx="10" cy="90" r="2" fill="black" /> <text x="02" y="105" class="data">"a"</text>
    <circle cx="30" cy="90" r="2" fill="black" /> <text x="22" y="105" class="data">"b"</text>
    <circle cx="40" cy="50" r="2" fill="red" />
    <circle cx="70" cy="30" r="2" fill="blue" />
    <circle cx="60" cy="50" r="2" fill="red" />
    <circle cx="80" cy="50" r="2" fill="red" />
    <circle cx="70" cy="90" r="2" fill="black" /> <text x="62" y="105" class="data">"c"</text>
    <circle cx="90" cy="90" r="2" fill="black" /> <text x="82" y="105" class="data">"d"</text>
  </g>
</svg>
